<svg xmlns="http://www.w3.org/2000/svg" xmlns:xlink="http://www.w3.org/1999/xlink" width="500" zoomAndPan="magnify" viewBox="0 0 375 374.999991" height="500" preserveAspectRatio="xMidYMid meet" version="1.0"><defs><g/></defs><rect x="-37.5" width="450" fill="#ffffff" y="-37.499999" height="449.999989" fill-opacity="1"/><rect x="-37.5" width="450" fill="#2b2b2b" y="-37.499999" height="449.999989" fill-opacity="1"/><g fill="#525050" fill-opacity="1"><g transform="translate(180.451833, 245.70838)"><g><path d="M 125.921875 -6.75 C 122.546875 -3.375 118.832031 -1.015625 114.78125 0.328125 C 110.726562 1.679688 106.003906 2.359375 100.609375 2.359375 C 92.835938 2.359375 86.8125 0.984375 82.53125 -1.765625 C 78.257812 -4.523438 75.617188 -9.222656 74.609375 -15.859375 L 72.078125 -32.75 C 70.953125 -40.625 69.40625 -46.585938 67.4375 -50.640625 C 65.46875 -54.691406 62.515625 -56.71875 58.578125 -56.71875 L 50.984375 -56.71875 L 50.984375 -17.890625 C 50.984375 -13.617188 51.289062 -10.523438 51.90625 -8.609375 C 52.519531 -6.691406 53.613281 -5.394531 55.1875 -4.71875 C 56.769531 -4.050781 59.363281 -3.601562 62.96875 -3.375 L 62.96875 0 C 56.4375 -0.332031 47.035156 -0.5 34.765625 -0.5 C 21.148438 -0.5 11.132812 -0.332031 4.71875 0 L 4.71875 -3.375 C 8.320312 -3.601562 10.9375 -4.050781 12.5625 -4.71875 C 14.195312 -5.394531 15.296875 -6.691406 15.859375 -8.609375 C 16.421875 -10.523438 16.703125 -13.617188 16.703125 -17.890625 L 16.703125 -101.609375 C 16.703125 -105.890625 16.394531 -108.984375 15.78125 -110.890625 C 15.164062 -112.804688 14.066406 -114.101562 12.484375 -114.78125 C 10.910156 -115.457031 8.320312 -115.90625 4.71875 -116.125 L 4.71875 -119.515625 C 11.132812 -119.171875 20.816406 -119 33.765625 -119 L 53.171875 -119.171875 C 55.421875 -119.285156 58.007812 -119.34375 60.9375 -119.34375 C 78.039062 -119.34375 90.785156 -116.921875 99.171875 -112.078125 C 107.554688 -107.242188 111.75 -99.875 111.75 -89.96875 C 111.75 -81.53125 108.597656 -74.328125 102.296875 -68.359375 C 95.992188 -62.398438 85.414062 -58.742188 70.5625 -57.390625 C 82.039062 -56.597656 90.703125 -54.429688 96.546875 -50.890625 C 102.398438 -47.347656 106.003906 -42.144531 107.359375 -35.28125 L 110.90625 -17.71875 C 111.6875 -13.5625 112.640625 -10.691406 113.765625 -9.109375 C 114.890625 -7.535156 116.46875 -6.75 118.5 -6.75 C 120.519531 -6.75 122.265625 -7.484375 123.734375 -8.953125 Z M 60.09375 -116.125 C 57.5 -116.125 55.554688 -115.726562 54.265625 -114.9375 C 52.972656 -114.15625 52.101562 -112.75 51.65625 -110.71875 C 51.207031 -108.695312 50.984375 -105.660156 50.984375 -101.609375 L 50.984375 -60.09375 L 55.53125 -60.09375 C 63.519531 -60.09375 68.976562 -62.539062 71.90625 -67.4375 C 74.832031 -72.332031 76.296875 -79.222656 76.296875 -88.109375 C 76.296875 -97.335938 75.03125 -104.3125 72.5 -109.03125 C 69.96875 -113.757812 65.832031 -116.125 60.09375 -116.125 Z M 60.09375 -116.125 "/></g></g></g><g fill="#846d62" fill-opacity="1"><g transform="translate(74.205186, 246.200519)"><g><path d="M 158.15625 -116.125 C 154.5625 -115.90625 151.945312 -115.457031 150.3125 -114.78125 C 148.675781 -114.101562 147.578125 -112.804688 147.015625 -110.890625 C 146.453125 -108.984375 146.171875 -105.890625 146.171875 -101.609375 L 146.171875 -17.890625 C 146.171875 -13.617188 146.476562 -10.523438 147.09375 -8.609375 C 147.71875 -6.691406 148.816406 -5.394531 150.390625 -4.71875 C 151.972656 -4.050781 154.5625 -3.601562 158.15625 -3.375 L 158.15625 0 C 151.289062 -0.332031 141.332031 -0.5 128.28125 -0.5 C 114.664062 -0.5 104.648438 -0.332031 98.234375 0 L 98.234375 -3.375 C 102.285156 -3.601562 105.238281 -4.050781 107.09375 -4.71875 C 108.957031 -5.394531 110.222656 -6.691406 110.890625 -8.609375 C 111.566406 -10.523438 111.90625 -13.617188 111.90625 -17.890625 L 111.90625 -104.140625 L 71.234375 -0.171875 L 68.53125 -0.171875 L 20.9375 -108.53125 L 20.9375 -33.078125 C 20.9375 -24.753906 21.269531 -18.765625 21.9375 -15.109375 C 22.613281 -11.453125 24.101562 -8.78125 26.40625 -7.09375 C 28.71875 -5.40625 32.578125 -4.164062 37.984375 -3.375 L 37.984375 0 C 33.367188 -0.332031 27.066406 -0.5 19.078125 -0.5 C 13.109375 -0.5 8.4375 -0.332031 5.0625 0 L 5.0625 -3.375 C 8.550781 -4.164062 11.140625 -5.375 12.828125 -7 C 14.515625 -8.632812 15.640625 -11.140625 16.203125 -14.515625 C 16.765625 -17.890625 17.046875 -22.953125 17.046875 -29.703125 L 17.046875 -101.609375 C 17.046875 -105.890625 16.734375 -108.984375 16.109375 -110.890625 C 15.492188 -112.804688 14.398438 -114.101562 12.828125 -114.78125 C 11.253906 -115.457031 8.664062 -115.90625 5.0625 -116.125 L 5.0625 -119.515625 C 8.4375 -119.171875 13.109375 -119 19.078125 -119 C 32.578125 -119 44.222656 -119.171875 54.015625 -119.515625 L 85.921875 -47.765625 L 113.59375 -119 L 128.28125 -119 C 141.332031 -119 151.289062 -119.171875 158.15625 -119.515625 Z M 158.15625 -116.125 "/></g></g></g><path fill="#2b2b2b" d="M 90.585938 173.511719 L 291.039062 173.511719 L 291.039062 199.035156 L 90.585938 199.035156 L 90.585938 173.511719 " fill-opacity="1" fill-rule="nonzero"/><g fill="#ddc6a4" fill-opacity="1"><g transform="translate(102.0556, 190.869957)"><g><path d="M 1.125 -9.265625 L 2.46875 -9.265625 L 5.609375 -1.578125 L 5.71875 -1.578125 L 8.875 -9.265625 L 10.21875 -9.265625 L 10.21875 0 L 9.171875 0 L 9.171875 -7.046875 L 9.078125 -7.046875 L 6.171875 0 L 5.15625 0 L 2.265625 -7.046875 L 2.171875 -7.046875 L 2.171875 0 L 1.125 0 Z M 1.125 -9.265625 "/></g></g></g><g fill="#ddc6a4" fill-opacity="1"><g transform="translate(116.273056, 190.869957)"><g><path d="M 1.5 0 L 0.328125 0 L 3.734375 -9.265625 L 4.890625 -9.265625 L 8.296875 0 L 7.125 0 L 6.1875 -2.625 L 2.4375 -2.625 Z M 2.796875 -3.625 L 5.828125 -3.625 L 4.34375 -7.8125 L 4.28125 -7.8125 Z M 2.796875 -3.625 "/></g></g></g><g fill="#ddc6a4" fill-opacity="1"><g transform="translate(127.486936, 190.869957)"><g><path d="M 1.5 0 L 0.328125 0 L 3.734375 -9.265625 L 4.890625 -9.265625 L 8.296875 0 L 7.125 0 L 6.1875 -2.625 L 2.4375 -2.625 Z M 2.796875 -3.625 L 5.828125 -3.625 L 4.34375 -7.8125 L 4.28125 -7.8125 Z M 2.796875 -3.625 "/></g></g></g><g fill="#ddc6a4" fill-opacity="1"><g transform="translate(138.700816, 190.869957)"><g><path d="M 0.328125 -9.265625 L 1.609375 -9.265625 L 4.1875 -4.9375 L 4.296875 -4.9375 L 6.859375 -9.265625 L 8.15625 -9.265625 L 4.796875 -3.828125 L 4.796875 0 L 3.671875 0 L 3.671875 -3.828125 Z M 0.328125 -9.265625 "/></g></g></g><g fill="#ddc6a4" fill-opacity="1"><g transform="translate(149.769945, 190.869957)"><g><path d="M 1.5 0 L 0.328125 0 L 3.734375 -9.265625 L 4.890625 -9.265625 L 8.296875 0 L 7.125 0 L 6.1875 -2.625 L 2.4375 -2.625 Z M 2.796875 -3.625 L 5.828125 -3.625 L 4.34375 -7.8125 L 4.28125 -7.8125 Z M 2.796875 -3.625 "/></g></g></g><g fill="#ddc6a4" fill-opacity="1"><g transform="translate(160.983822, 190.869957)"><g><path d="M 8.46875 -9.265625 L 8.46875 0 L 7.390625 0 L 2.34375 -7.28125 L 2.25 -7.28125 L 2.25 0 L 1.125 0 L 1.125 -9.265625 L 2.203125 -9.265625 L 7.28125 -1.96875 L 7.375 -1.96875 L 7.375 -9.265625 Z M 8.46875 -9.265625 "/></g></g></g><g fill="#ddc6a4" fill-opacity="1"><g transform="translate(173.169176, 190.869957)"><g/></g></g><g fill="#ddc6a4" fill-opacity="1"><g transform="translate(179.352953, 190.869957)"><g/></g></g><g fill="#ddc6a4" fill-opacity="1"><g transform="translate(185.53673, 190.869957)"><g/></g></g><g fill="#ddc6a4" fill-opacity="1"><g transform="translate(191.720507, 190.869957)"><g/></g></g><g fill="#ddc6a4" fill-opacity="1"><g transform="translate(197.904284, 190.869957)"><g/></g></g><g fill="#ddc6a4" fill-opacity="1"><g transform="translate(204.088061, 190.869957)"><g/></g></g><g fill="#ddc6a4" fill-opacity="1"><g transform="translate(210.271838, 190.869957)"><g/></g></g><g fill="#ddc6a4" fill-opacity="1"><g transform="translate(216.455615, 190.869957)"><g/></g></g><g fill="#ddc6a4" fill-opacity="1"><g transform="translate(222.637405, 190.869957)"><g><path d="M 1.125 0 L 1.125 -9.265625 L 4.25 -9.265625 C 4.976562 -9.265625 5.570312 -9.140625 6.03125 -8.890625 C 6.5 -8.648438 6.84375 -8.316406 7.0625 -7.890625 C 7.289062 -7.460938 7.40625 -6.972656 7.40625 -6.421875 C 7.40625 -5.804688 7.265625 -5.269531 6.984375 -4.8125 C 6.703125 -4.363281 6.265625 -4.035156 5.671875 -3.828125 L 7.765625 0 L 6.46875 0 L 4.515625 -3.625 C 4.429688 -3.625 4.351562 -3.625 4.28125 -3.625 L 2.25 -3.625 L 2.25 0 Z M 2.25 -4.640625 L 4.234375 -4.640625 C 4.984375 -4.640625 5.515625 -4.796875 5.828125 -5.109375 C 6.140625 -5.429688 6.296875 -5.867188 6.296875 -6.421875 C 6.296875 -6.984375 6.132812 -7.429688 5.8125 -7.765625 C 5.5 -8.109375 4.96875 -8.28125 4.21875 -8.28125 L 2.25 -8.28125 Z M 2.25 -4.640625 "/></g></g></g><g fill="#ddc6a4" fill-opacity="1"><g transform="translate(233.380835, 190.869957)"><g><path d="M 1.5 0 L 0.328125 0 L 3.734375 -9.265625 L 4.890625 -9.265625 L 8.296875 0 L 7.125 0 L 6.1875 -2.625 L 2.4375 -2.625 Z M 2.796875 -3.625 L 5.828125 -3.625 L 4.34375 -7.8125 L 4.28125 -7.8125 Z M 2.796875 -3.625 "/></g></g></g><g fill="#ddc6a4" fill-opacity="1"><g transform="translate(244.594715, 190.869957)"><g><path d="M 1.125 -9.265625 L 2.46875 -9.265625 L 5.609375 -1.578125 L 5.71875 -1.578125 L 8.875 -9.265625 L 10.21875 -9.265625 L 10.21875 0 L 9.171875 0 L 9.171875 -7.046875 L 9.078125 -7.046875 L 6.171875 0 L 5.15625 0 L 2.265625 -7.046875 L 2.171875 -7.046875 L 2.171875 0 L 1.125 0 Z M 1.125 -9.265625 "/></g></g></g><g fill="#ddc6a4" fill-opacity="1"><g transform="translate(258.812171, 190.869957)"><g><path d="M 8.953125 -4.640625 C 8.953125 -3.660156 8.773438 -2.8125 8.421875 -2.09375 C 8.066406 -1.382812 7.582031 -0.835938 6.96875 -0.453125 C 6.351562 -0.0664062 5.648438 0.125 4.859375 0.125 C 4.066406 0.125 3.359375 -0.0664062 2.734375 -0.453125 C 2.117188 -0.835938 1.632812 -1.382812 1.28125 -2.09375 C 0.9375 -2.8125 0.765625 -3.660156 0.765625 -4.640625 C 0.765625 -5.617188 0.9375 -6.460938 1.28125 -7.171875 C 1.632812 -7.878906 2.117188 -8.425781 2.734375 -8.8125 C 3.359375 -9.207031 4.066406 -9.40625 4.859375 -9.40625 C 5.648438 -9.40625 6.351562 -9.207031 6.96875 -8.8125 C 7.582031 -8.425781 8.066406 -7.878906 8.421875 -7.171875 C 8.773438 -6.460938 8.953125 -5.617188 8.953125 -4.640625 Z M 7.859375 -4.640625 C 7.859375 -5.441406 7.722656 -6.117188 7.453125 -6.671875 C 7.191406 -7.222656 6.832031 -7.640625 6.375 -7.921875 C 5.925781 -8.203125 5.421875 -8.34375 4.859375 -8.34375 C 4.296875 -8.34375 3.785156 -8.203125 3.328125 -7.921875 C 2.878906 -7.640625 2.519531 -7.222656 2.25 -6.671875 C 1.976562 -6.117188 1.84375 -5.441406 1.84375 -4.640625 C 1.84375 -3.835938 1.976562 -3.160156 2.25 -2.609375 C 2.519531 -2.054688 2.878906 -1.632812 3.328125 -1.34375 C 3.785156 -1.0625 4.296875 -0.921875 4.859375 -0.921875 C 5.421875 -0.921875 5.925781 -1.0625 6.375 -1.34375 C 6.832031 -1.632812 7.191406 -2.054688 7.453125 -2.609375 C 7.722656 -3.160156 7.859375 -3.835938 7.859375 -4.640625 Z M 7.859375 -4.640625 "/></g></g></g><g fill="#ddc6a4" fill-opacity="1"><g transform="translate(271.111678, 190.869957)"><g><path d="M 0.609375 -8.28125 L 0.609375 -9.265625 L 7.578125 -9.265625 L 7.578125 -8.28125 L 4.65625 -8.28125 L 4.65625 0 L 3.53125 0 L 3.53125 -8.28125 Z M 0.609375 -8.28125 "/></g></g></g></svg>