<svg xmlns="http://www.w3.org/2000/svg" xmlns:xlink="http://www.w3.org/1999/xlink" width="500" zoomAndPan="magnify" viewBox="0 0 375 374.999991" height="500" preserveAspectRatio="xMidYMid meet" version="1.0"><defs><g/></defs><rect x="-37.5" width="450" fill="#ffffff" y="-37.499999" height="449.999989" fill-opacity="1"/><rect x="-37.5" width="450" fill="#ffffff" y="-37.499999" height="449.999989" fill-opacity="1"/><rect x="-37.5" width="450" fill="#fdf7f2" y="-37.499999" height="449.999989" fill-opacity="1"/><g fill="#a8a29c" fill-opacity="1"><g transform="translate(180.951558, 247.138971)"><g><path d="M 126.84375 -6.796875 C 123.445312 -3.398438 119.707031 -1.023438 115.625 0.328125 C 111.539062 1.691406 106.78125 2.375 101.34375 2.375 C 93.519531 2.375 87.453125 0.988281 83.140625 -1.78125 C 78.835938 -4.5625 76.175781 -9.296875 75.15625 -15.984375 L 72.609375 -32.984375 C 71.472656 -40.921875 69.910156 -46.925781 67.921875 -51 C 65.941406 -55.082031 62.96875 -57.125 59 -57.125 L 51.34375 -57.125 L 51.34375 -18.015625 C 51.34375 -13.710938 51.65625 -10.597656 52.28125 -8.671875 C 52.90625 -6.742188 54.007812 -5.4375 55.59375 -4.75 C 57.1875 -4.070312 59.796875 -3.625 63.421875 -3.40625 L 63.421875 0 C 56.847656 -0.34375 47.382812 -0.515625 35.03125 -0.515625 C 21.3125 -0.515625 11.222656 -0.34375 4.765625 0 L 4.765625 -3.40625 C 8.390625 -3.625 11.019531 -4.070312 12.65625 -4.75 C 14.300781 -5.4375 15.40625 -6.742188 15.96875 -8.671875 C 16.539062 -10.597656 16.828125 -13.710938 16.828125 -18.015625 L 16.828125 -102.359375 C 16.828125 -106.660156 16.515625 -109.773438 15.890625 -111.703125 C 15.273438 -113.628906 14.171875 -114.929688 12.578125 -115.609375 C 10.992188 -116.296875 8.390625 -116.753906 4.765625 -116.984375 L 4.765625 -120.375 C 11.222656 -120.039062 20.96875 -119.875 34 -119.875 L 53.5625 -120.046875 C 55.820312 -120.160156 58.425781 -120.21875 61.375 -120.21875 C 78.601562 -120.21875 91.441406 -117.78125 99.890625 -112.90625 C 108.335938 -108.03125 112.5625 -100.601562 112.5625 -90.625 C 112.5625 -82.125 109.382812 -74.867188 103.03125 -68.859375 C 96.6875 -62.847656 86.035156 -59.164062 71.078125 -57.8125 C 82.640625 -57.019531 91.363281 -54.835938 97.25 -51.265625 C 103.144531 -47.691406 106.773438 -42.445312 108.140625 -35.53125 L 111.703125 -17.859375 C 112.503906 -13.660156 113.46875 -10.765625 114.59375 -9.171875 C 115.726562 -7.585938 117.316406 -6.796875 119.359375 -6.796875 C 121.398438 -6.796875 123.160156 -7.535156 124.640625 -9.015625 Z M 60.53125 -116.984375 C 57.925781 -116.984375 55.96875 -116.582031 54.65625 -115.78125 C 53.351562 -114.988281 52.472656 -113.570312 52.015625 -111.53125 C 51.566406 -109.5 51.34375 -106.441406 51.34375 -102.359375 L 51.34375 -60.53125 L 55.9375 -60.53125 C 63.988281 -60.53125 69.488281 -62.992188 72.4375 -67.921875 C 75.382812 -72.859375 76.859375 -79.800781 76.859375 -88.75 C 76.859375 -98.050781 75.582031 -105.082031 73.03125 -109.84375 C 70.476562 -114.601562 66.3125 -116.984375 60.53125 -116.984375 Z M 60.53125 -116.984375 "/></g></g></g><g fill="#846d62" fill-opacity="1"><g transform="translate(73.931391, 247.63471)"><g><path d="M 159.3125 -116.984375 C 155.6875 -116.753906 153.050781 -116.296875 151.40625 -115.609375 C 149.769531 -114.929688 148.664062 -113.628906 148.09375 -111.703125 C 147.53125 -109.773438 147.25 -106.660156 147.25 -102.359375 L 147.25 -18.015625 C 147.25 -13.710938 147.5625 -10.597656 148.1875 -8.671875 C 148.8125 -6.742188 149.914062 -5.4375 151.5 -4.75 C 153.082031 -4.070312 155.6875 -3.625 159.3125 -3.40625 L 159.3125 0 C 152.40625 -0.34375 142.375 -0.515625 129.21875 -0.515625 C 115.507812 -0.515625 105.421875 -0.34375 98.953125 0 L 98.953125 -3.40625 C 103.035156 -3.625 106.007812 -4.070312 107.875 -4.75 C 109.75 -5.4375 111.023438 -6.742188 111.703125 -8.671875 C 112.390625 -10.597656 112.734375 -13.710938 112.734375 -18.015625 L 112.734375 -104.90625 L 71.75 -0.171875 L 69.03125 -0.171875 L 21.078125 -109.328125 L 21.078125 -33.328125 C 21.078125 -24.941406 21.414062 -18.90625 22.09375 -15.21875 C 22.78125 -11.53125 24.285156 -8.835938 26.609375 -7.140625 C 28.929688 -5.441406 32.8125 -4.195312 38.25 -3.40625 L 38.25 0 C 33.601562 -0.34375 27.257812 -0.515625 19.21875 -0.515625 C 13.207031 -0.515625 8.5 -0.34375 5.09375 0 L 5.09375 -3.40625 C 8.613281 -4.195312 11.222656 -5.410156 12.921875 -7.046875 C 14.617188 -8.691406 15.75 -11.210938 16.3125 -14.609375 C 16.882812 -18.015625 17.171875 -23.117188 17.171875 -29.921875 L 17.171875 -102.359375 C 17.171875 -106.660156 16.859375 -109.773438 16.234375 -111.703125 C 15.609375 -113.628906 14.503906 -114.929688 12.921875 -115.609375 C 11.335938 -116.296875 8.726562 -116.753906 5.09375 -116.984375 L 5.09375 -120.375 C 8.5 -120.039062 13.207031 -119.875 19.21875 -119.875 C 32.820312 -119.875 44.550781 -120.039062 54.40625 -120.375 L 86.546875 -48.125 L 114.4375 -119.875 L 129.21875 -119.875 C 142.375 -119.875 152.40625 -120.039062 159.3125 -120.375 Z M 159.3125 -116.984375 "/></g></g></g><path fill="#fdf7f2" d="M 90.433594 174.414062 L 292.34375 174.414062 L 292.34375 200.125 L 90.433594 200.125 L 90.433594 174.414062 " fill-opacity="1" fill-rule="nonzero"/><g fill="#846d62" fill-opacity="1"><g transform="translate(101.984561, 191.901322)"><g><path d="M 1.125 -9.34375 L 2.484375 -9.34375 L 5.65625 -1.59375 L 5.765625 -1.59375 L 8.9375 -9.34375 L 10.296875 -9.34375 L 10.296875 0 L 9.234375 0 L 9.234375 -7.09375 L 9.140625 -7.09375 L 6.21875 0 L 5.203125 0 L 2.28125 -7.09375 L 2.1875 -7.09375 L 2.1875 0 L 1.125 0 Z M 1.125 -9.34375 "/></g></g></g><g fill="#846d62" fill-opacity="1"><g transform="translate(116.305525, 191.901322)"><g><path d="M 1.515625 0 L 0.328125 0 L 3.765625 -9.34375 L 4.921875 -9.34375 L 8.359375 0 L 7.171875 0 L 6.234375 -2.640625 L 2.453125 -2.640625 Z M 2.8125 -3.65625 L 5.875 -3.65625 L 4.375 -7.859375 L 4.3125 -7.859375 Z M 2.8125 -3.65625 "/></g></g></g><g fill="#846d62" fill-opacity="1"><g transform="translate(127.601046, 191.901322)"><g><path d="M 1.515625 0 L 0.328125 0 L 3.765625 -9.34375 L 4.921875 -9.34375 L 8.359375 0 L 7.171875 0 L 6.234375 -2.640625 L 2.453125 -2.640625 Z M 2.8125 -3.65625 L 5.875 -3.65625 L 4.375 -7.859375 L 4.3125 -7.859375 Z M 2.8125 -3.65625 "/></g></g></g><g fill="#846d62" fill-opacity="1"><g transform="translate(138.896567, 191.901322)"><g><path d="M 0.328125 -9.34375 L 1.625 -9.34375 L 4.21875 -4.984375 L 4.328125 -4.984375 L 6.921875 -9.34375 L 8.203125 -9.34375 L 4.828125 -3.84375 L 4.828125 0 L 3.703125 0 L 3.703125 -3.84375 Z M 0.328125 -9.34375 "/></g></g></g><g fill="#846d62" fill-opacity="1"><g transform="translate(150.046283, 191.901322)"><g><path d="M 1.515625 0 L 0.328125 0 L 3.765625 -9.34375 L 4.921875 -9.34375 L 8.359375 0 L 7.171875 0 L 6.234375 -2.640625 L 2.453125 -2.640625 Z M 2.8125 -3.65625 L 5.875 -3.65625 L 4.375 -7.859375 L 4.3125 -7.859375 Z M 2.8125 -3.65625 "/></g></g></g><g fill="#846d62" fill-opacity="1"><g transform="translate(161.341801, 191.901322)"><g><path d="M 8.53125 -9.34375 L 8.53125 0 L 7.4375 0 L 2.359375 -7.328125 L 2.265625 -7.328125 L 2.265625 0 L 1.125 0 L 1.125 -9.34375 L 2.21875 -9.34375 L 7.328125 -1.984375 L 7.421875 -1.984375 L 7.421875 -9.34375 Z M 8.53125 -9.34375 "/></g></g></g><g fill="#846d62" fill-opacity="1"><g transform="translate(173.615868, 191.901322)"><g/></g></g><g fill="#846d62" fill-opacity="1"><g transform="translate(179.844665, 191.901322)"><g/></g></g><g fill="#846d62" fill-opacity="1"><g transform="translate(186.073462, 191.901322)"><g/></g></g><g fill="#846d62" fill-opacity="1"><g transform="translate(192.302259, 191.901322)"><g/></g></g><g fill="#846d62" fill-opacity="1"><g transform="translate(198.531056, 191.901322)"><g/></g></g><g fill="#846d62" fill-opacity="1"><g transform="translate(204.759853, 191.901322)"><g/></g></g><g fill="#846d62" fill-opacity="1"><g transform="translate(210.98865, 191.901322)"><g/></g></g><g fill="#846d62" fill-opacity="1"><g transform="translate(217.217447, 191.901322)"><g/></g></g><g fill="#846d62" fill-opacity="1"><g transform="translate(223.444243, 191.901322)"><g><path d="M 1.125 0 L 1.125 -9.34375 L 4.28125 -9.34375 C 5.007812 -9.34375 5.609375 -9.21875 6.078125 -8.96875 C 6.546875 -8.71875 6.894531 -8.375 7.125 -7.9375 C 7.351562 -7.507812 7.46875 -7.019531 7.46875 -6.46875 C 7.46875 -5.851562 7.320312 -5.316406 7.03125 -4.859375 C 6.75 -4.398438 6.3125 -4.066406 5.71875 -3.859375 L 7.828125 0 L 6.515625 0 L 4.546875 -3.65625 C 4.460938 -3.65625 4.382812 -3.65625 4.3125 -3.65625 L 2.265625 -3.65625 L 2.265625 0 Z M 2.265625 -4.671875 L 4.265625 -4.671875 C 5.015625 -4.671875 5.546875 -4.832031 5.859375 -5.15625 C 6.179688 -5.476562 6.34375 -5.914062 6.34375 -6.46875 C 6.34375 -7.039062 6.179688 -7.492188 5.859375 -7.828125 C 5.546875 -8.171875 5.007812 -8.34375 4.25 -8.34375 L 2.265625 -8.34375 Z M 2.265625 -4.671875 "/></g></g></g><g fill="#846d62" fill-opacity="1"><g transform="translate(234.265889, 191.901322)"><g><path d="M 1.515625 0 L 0.328125 0 L 3.765625 -9.34375 L 4.921875 -9.34375 L 8.359375 0 L 7.171875 0 L 6.234375 -2.640625 L 2.453125 -2.640625 Z M 2.8125 -3.65625 L 5.875 -3.65625 L 4.375 -7.859375 L 4.3125 -7.859375 Z M 2.8125 -3.65625 "/></g></g></g><g fill="#846d62" fill-opacity="1"><g transform="translate(245.56141, 191.901322)"><g><path d="M 1.125 -9.34375 L 2.484375 -9.34375 L 5.65625 -1.59375 L 5.765625 -1.59375 L 8.9375 -9.34375 L 10.296875 -9.34375 L 10.296875 0 L 9.234375 0 L 9.234375 -7.09375 L 9.140625 -7.09375 L 6.21875 0 L 5.203125 0 L 2.28125 -7.09375 L 2.1875 -7.09375 L 2.1875 0 L 1.125 0 Z M 1.125 -9.34375 "/></g></g></g><g fill="#846d62" fill-opacity="1"><g transform="translate(259.882374, 191.901322)"><g><path d="M 9.015625 -4.671875 C 9.015625 -3.679688 8.832031 -2.828125 8.46875 -2.109375 C 8.113281 -1.398438 7.625 -0.847656 7 -0.453125 C 6.382812 -0.0664062 5.679688 0.125 4.890625 0.125 C 4.085938 0.125 3.375 -0.0664062 2.75 -0.453125 C 2.132812 -0.847656 1.648438 -1.398438 1.296875 -2.109375 C 0.941406 -2.828125 0.765625 -3.679688 0.765625 -4.671875 C 0.765625 -5.648438 0.941406 -6.5 1.296875 -7.21875 C 1.648438 -7.9375 2.132812 -8.488281 2.75 -8.875 C 3.375 -9.269531 4.085938 -9.46875 4.890625 -9.46875 C 5.679688 -9.46875 6.382812 -9.269531 7 -8.875 C 7.625 -8.488281 8.113281 -7.9375 8.46875 -7.21875 C 8.832031 -6.5 9.015625 -5.648438 9.015625 -4.671875 Z M 7.921875 -4.671875 C 7.921875 -5.484375 7.785156 -6.164062 7.515625 -6.71875 C 7.242188 -7.269531 6.878906 -7.6875 6.421875 -7.96875 C 5.960938 -8.257812 5.453125 -8.40625 4.890625 -8.40625 C 4.328125 -8.40625 3.816406 -8.257812 3.359375 -7.96875 C 2.898438 -7.6875 2.535156 -7.269531 2.265625 -6.71875 C 1.992188 -6.164062 1.859375 -5.484375 1.859375 -4.671875 C 1.859375 -3.859375 1.992188 -3.171875 2.265625 -2.609375 C 2.535156 -2.054688 2.898438 -1.640625 3.359375 -1.359375 C 3.816406 -1.078125 4.328125 -0.9375 4.890625 -0.9375 C 5.453125 -0.9375 5.960938 -1.078125 6.421875 -1.359375 C 6.878906 -1.640625 7.242188 -2.054688 7.515625 -2.609375 C 7.785156 -3.171875 7.921875 -3.859375 7.921875 -4.671875 Z M 7.921875 -4.671875 "/></g></g></g><g fill="#846d62" fill-opacity="1"><g transform="translate(272.271426, 191.901322)"><g><path d="M 0.625 -8.34375 L 0.625 -9.34375 L 7.625 -9.34375 L 7.625 -8.34375 L 4.6875 -8.34375 L 4.6875 0 L 3.5625 0 L 3.5625 -8.34375 Z M 0.625 -8.34375 "/></g></g></g></svg>